<svg xmlns="http://www.w3.org/2000/svg" viewBox="0 0 216 216"><title>Asset 1</title><g id="Layer_2" data-name="Layer 2"><g id="ART"><path d="M201.41,53.77h0v0l-.06-.1c-.56-1-1.14-1.91-1.73-2.86l-.21-.33q-1.85-2.93-3.87-5.72l-.35-.48c-.63-.87-1.28-1.74-1.94-2.59l-.08-.09v0c-1.21-1.54-2.44-3-3.71-4.49-.08-.1-.17-.19-.25-.28-.54-.62-1.08-1.23-1.64-1.83l-.44-.47c-.5-.54-1-1.07-1.51-1.6l-.51-.52-1.53-1.53-.5-.48c-.55-.53-1.1-1.06-1.66-1.58l-.4-.37c-.68-.62-1.37-1.24-2.06-1.84l0,0c-1.48-1.29-3-2.54-4.54-3.74l-.15-.12c-.7-.54-1.41-1.08-2.12-1.6l-.39-.29c-.64-.47-1.29-.93-2-1.39l-.45-.32-2-1.33-.41-.27c-.72-.47-1.45-.93-2.18-1.39l-.23-.14a109.08,109.08,0,0,0-10.38-5.62l-.17-.08c-.83-.39-1.66-.77-2.5-1.14L151.21,9c-.84-.37-1.68-.72-2.52-1.06l-.2-.09A107.29,107.29,0,0,0,131.2,2.51l-.06,0A108.72,108.72,0,0,0,109.48,0h0L108,0A108,108,0,0,0,16.47,165.35a.61.61,0,0,1,.07.1c1.27,2,2.6,4,4,5.91l.21.28a107.25,107.25,0,0,0,7.78,9.47l.24.26c.57.62,1.14,1.22,1.73,1.83l.32.33c.57.58,1.15,1.16,1.74,1.73l.31.31c.63.6,1.26,1.2,1.9,1.79l.18.17A107.44,107.44,0,0,0,44,195l.19.14c.71.53,1.43,1,2.16,1.55l.28.19c.72.5,1.45,1,2.18,1.47l.23.15q1.18.78,2.4,1.53h0a107.89,107.89,0,0,0,10.48,5.69h0c.88.41,1.77.82,2.66,1.21l.12.05c.89.39,1.78.77,2.68,1.13l.06,0a108,108,0,0,0,134-154.35ZM182.26,159.54a68.92,68.92,0,0,0,1.06-13.72,54.93,54.93,0,0,0-7.86-27.5A61.89,61.89,0,0,0,155.64,98.9c-12.6-8-26.86-12.47-41.14-16.6h0c-3.16-1-6.31-1.94-9.43-3A91.68,91.68,0,0,1,95,75.14c-2.79-1.37-5.81-2.93-7.92-5.27-2.81-3.11-1.25-8.28,1.22-11.11,4.48-5.12,12.12-6.76,18.59-7.1.66,0,1.32,0,2-.06a56.43,56.43,0,0,1,47.86,28l.06.1h0a8.79,8.79,0,0,0,16.48-4.28A8.68,8.68,0,0,0,172,70.9h0L172,70.8l-.12-.2-.08-.13A74,74,0,0,0,108,34h-.15C96.34,34.26,85,37.32,76.72,45.47a28.89,28.89,0,0,0-8.57,22.62l0,.5c.78,9,7.1,15.44,14.5,19.85,8,4.76,17,7.7,25.82,10.41l.64.19v0a224.67,224.67,0,0,1,24.09,8.06c10.41,4.33,20.93,10.33,27.09,20.12,6.62,10.53,6.89,24.48,3,36.05-4.94,14.88-17.35,25.65-31.87,30.88A76,76,0,0,1,106,198.41h0q-1.48,0-3-.12h-.21c-.87-.05-1.74-.12-2.61-.19l-.48-.05c-.87-.08-1.74-.17-2.6-.27l-.19,0c-1.89-.24-3.77-.53-5.62-.88l-.43-.08q-1.23-.24-2.46-.51l-.27-.06c-1.84-.41-3.66-.89-5.45-1.41l-.33-.1L79.93,194l-.3-.1Q77,193,74.37,191.94l-.2-.08c-.79-.32-1.57-.65-2.35-1l-.3-.13q-2.56-1.14-5-2.42l0,0c-.8-.41-1.58-.84-2.37-1.27l-.26-.15q-3.63-2-7-4.4l-.19-.13c-.74-.52-1.47-1-2.2-1.58h0q-2.27-1.68-4.41-3.48l-.12-.1-2-1.77-.06,0c-1.4-1.26-2.77-2.56-4.09-3.9h0q-1-1-1.92-2l-.07-.08q-2.86-3.09-5.44-6.44l-.06-.08q-2.57-3.36-4.82-6.95l0-.08c-.49-.79-1-1.59-1.45-2.4l0,0h0a90.25,90.25,0,0,1,3.93-96.93h0a69.68,69.68,0,0,0-1.06,13.72,54.84,54.84,0,0,0,7.87,27.5A61.76,61.76,0,0,0,60.36,117.1c11.67,7.39,24.76,11.78,38,15.67v0c4.23,1.24,8.44,2.53,12.6,4A91.68,91.68,0,0,1,121,140.86c2.79,1.37,5.81,2.93,7.92,5.27,2.82,3.11,1.25,8.28-1.22,11.11-4.47,5.12-12.11,6.76-18.59,7.1-.66,0-1.32,0-2,.06a56.44,56.44,0,0,1-47.87-28l-.06-.1,0,0a8.79,8.79,0,1,0-14.91,9.25A73.93,73.93,0,0,0,108,182h.17c11.51-.25,22.87-3.32,31.11-11.46a28.85,28.85,0,0,0,8.57-22.62c0-.17,0-.34,0-.5-.77-9-7.1-15.44-14.5-19.85-8-4.76-17-7.7-25.82-10.41L103.69,116h0a202.58,202.58,0,0,1-20.9-7.14c-10.42-4.33-20.94-10.33-27.1-20.12-6.62-10.53-6.89-24.47-3-36.05C57.6,37.83,70,27.06,84.52,21.83a75.9,75.9,0,0,1,25.55-4.23h0c1,0,2,.06,3,.11l.26,0,2.55.18.53.05c.85.08,1.69.17,2.54.27l.23,0c1,.11,1.93.25,2.88.4h0c.89.14,1.78.3,2.66.47l.5.09c.79.15,1.58.32,2.36.49l.36.08q2.73.62,5.38,1.39l.44.13L136,22l.42.14Q139,23,141.59,24l.35.15c.73.29,1.45.6,2.17.91l.44.19q2.5,1.11,4.93,2.37l.22.12c.72.37,1.44.76,2.15,1.16l.41.22c.73.42,1.46.84,2.19,1.28l.11.07c.81.48,1.6,1,2.39,1.49h0c.74.48,1.47,1,2.2,1.47l.35.25c.67.46,1.33.94,2,1.42l.2.15q2.2,1.62,4.29,3.38l.28.24c.62.52,1.23,1.05,1.83,1.58l.24.22q2,1.82,4,3.77l.19.2c.58.58,1.14,1.17,1.7,1.78l.24.25c1.24,1.34,2.44,2.73,3.6,4.15l.09.11c.54.66,1.07,1.32,1.59,2l.22.29q2.49,3.26,4.67,6.74l.2.31c.45.72.89,1.44,1.31,2.18a90.22,90.22,0,0,1-3.85,97Z" style="fill:#41ad49"/></g></g></svg>