<?xml version="1.0" encoding="utf-8"?>
<!-- Generator: Adobe Illustrator 23.0.2, SVG Export Plug-In . SVG Version: 6.00 Build 0)  -->
<svg version="1.1" id="Main" xmlns="http://www.w3.org/2000/svg" xmlns:xlink="http://www.w3.org/1999/xlink" x="0px" y="0px"
	 viewBox="0 0 1917.8 318.6" style="enable-background:new 0 0 1917.8 318.6;" xml:space="preserve">
<style type="text/css">
	.st0{fill:#FFFFFF;}
	.st1{fill:#0B657A;}
</style>
<title>Logo</title>
<path class="st0" d="M684.1,278.4c-7.1,23.8-25.4,35.7-54.7,35.7h-84.6c-24.1,0-36.2-7.7-36.2-23.2c-16.2,18.5-36.1,27.7-59.8,27.7
	c-17.4,0-31.6-5.4-42.4-16.1c-10.9-10.7-16.3-24.7-16.3-42c0-31.1,11.9-55.7,35.7-73.7c21.6-16.4,48.3-24.6,80.2-24.6h127.5
	l-42,116.1L684.1,278.4z M540.1,198h-49.4l-15.6,52c-0.9,2.9-1.3,5.9-1.4,9c0,12.9,12.7,19.4,38,19.4L540.1,198z"/>
<path class="st0" d="M856.5,282c-3.7,11.8-12.3,20.5-25.7,26.1c-9.5,4-19.8,6.1-30.1,6h-86c-22,0-33-6.8-33-20.3
	c0.1-4.1,1-8.1,2.5-11.9L767,71.8h79L762.7,282H856.5z"/>
<path class="st0" d="M1135.4,278.4c-3.1,11.5-10.3,20.5-21.4,27c-10,5.8-21.4,8.7-34.2,8.7H955.4c-72.3,0-108.5-21.8-108.5-65.4
	c0-28,12.4-50,37.1-65.9c21.3-13.7,46.6-20.5,75.9-20.5h32.4c18.9,0,35.5,2.9,49.8,8.7c19.1,7.7,29,19.5,29.9,35.3
	c0.7,15.9-6.9,29.2-23,39.7h-73.9l24.1-48h-47.1l-18.3,53.8c-1,2.7-1.5,5.6-1.6,8.5c0,12.1,9.7,18.1,29,18.1L1135.4,278.4z"/>
<path class="st0" d="M1439.9,278.4c-3.9,13.1-12.4,22.8-25.7,29c-9.4,4.5-19.7,6.8-30.1,6.7H1295c-20.4,0-30.6-6.7-30.6-20.1
	c0.2-5.3,1.2-10.6,3.1-15.6l17-48l-76.8,65c-18,12.5-32.8,18.8-44.4,18.8h-41.1l53.4-151.8h80.6l-25.2,71.5l68.1-55.8
	c18.5-15,38.5-22.3,60.1-21.7c14.6,0.6,21.9,8.3,21.9,23.2c-0.2,6.3-1.4,12.6-3.6,18.5l-28.8,80.4H1439.9z"/>
<rect x="256.5" y="0.1" class="st1" width="1241" height="56.2"/>
<path class="st1" d="M1917.8,0l-158.1,285.8c-10.6,18.9-26.7,28.4-48.4,28.4h-27.9V115.7l-109.8,171c-11.8,18.3-29.1,27.5-52,27.5
	h-31.7l23.4-257.9h-103.8L1443.8,0h98.7c12.1,0,22.4,2.8,31,8.3c11.6,7.6,17.4,19.4,17.4,35.5c0,2.5-0.2,4.9-0.4,7.4l-16.1,151.4
	l106.5-169c7.6-12.1,14.4-20.2,20.3-24.6c8.3-6,19.7-8.9,34.2-8.9h21.9v198L1864.4,0L1917.8,0z"/>
<path class="st0" d="M387.8,104.3c0,27.2-9.5,56-28.4,86.4c-25,40-61.3,71.1-109,93.1c-43.9,20.2-91.1,30.4-141.6,30.4H35.3
	l80.8-229.1h80.6l-68.6,193.3c29.3,0,58.4-9,87.2-27s49.8-40.3,63.1-66.8c11.9-23.4,17.9-42.9,17.9-58.5c0-25.6-7.1-44-21.4-55.1
	c-12.8-9.8-32.5-14.7-58.9-14.7H0L34.4,0h216.1c37.3,0,68.4,7.9,93.3,23.7C373.2,42.3,387.8,69.1,387.8,104.3z"/>
</svg>
